<mxfile host="app.diagrams.net" modified="2022-10-18T02:08:17.430Z" agent="5.0 (Windows)" etag="-_RvSTudcIze0myM8BqT" version="20.4.0" type="github">
  <diagram id="C5RBs43oDa-KdzZeNtuy" name="Page-1">
    <mxGraphModel dx="1422" dy="780" grid="1" gridSize="10" guides="1" tooltips="1" connect="1" arrows="1" fold="1" page="1" pageScale="1" pageWidth="1169" pageHeight="1654" math="0" shadow="0">
      <root>
        <mxCell id="WIyWlLk6GJQsqaUBKTNV-0" />
        <mxCell id="WIyWlLk6GJQsqaUBKTNV-1" parent="WIyWlLk6GJQsqaUBKTNV-0" />
        <mxCell id="wzxu3Kn7o4W1zhTskl5w-0" value="" style="edgeStyle=orthogonalEdgeStyle;rounded=0;orthogonalLoop=1;jettySize=auto;html=1;" edge="1" parent="WIyWlLk6GJQsqaUBKTNV-1" source="wzxu3Kn7o4W1zhTskl5w-1" target="wzxu3Kn7o4W1zhTskl5w-3">
          <mxGeometry relative="1" as="geometry" />
        </mxCell>
        <mxCell id="wzxu3Kn7o4W1zhTskl5w-1" value="开始" style="rounded=1;whiteSpace=wrap;html=1;fontSize=12;glass=0;strokeWidth=1;shadow=0;" vertex="1" parent="WIyWlLk6GJQsqaUBKTNV-1">
          <mxGeometry x="20" y="120" width="120" height="40" as="geometry" />
        </mxCell>
        <mxCell id="wzxu3Kn7o4W1zhTskl5w-2" value="" style="edgeStyle=orthogonalEdgeStyle;rounded=0;orthogonalLoop=1;jettySize=auto;html=1;" edge="1" parent="WIyWlLk6GJQsqaUBKTNV-1" source="wzxu3Kn7o4W1zhTskl5w-3" target="wzxu3Kn7o4W1zhTskl5w-5">
          <mxGeometry relative="1" as="geometry" />
        </mxCell>
        <mxCell id="wzxu3Kn7o4W1zhTskl5w-3" value="查询approvalLog" style="rounded=1;whiteSpace=wrap;html=1;fontSize=12;glass=0;strokeWidth=1;shadow=0;" vertex="1" parent="WIyWlLk6GJQsqaUBKTNV-1">
          <mxGeometry x="200" y="120" width="120" height="40" as="geometry" />
        </mxCell>
        <mxCell id="wzxu3Kn7o4W1zhTskl5w-19" style="edgeStyle=orthogonalEdgeStyle;rounded=0;orthogonalLoop=1;jettySize=auto;html=1;exitX=1;exitY=0.5;exitDx=0;exitDy=0;" edge="1" parent="WIyWlLk6GJQsqaUBKTNV-1" source="wzxu3Kn7o4W1zhTskl5w-5" target="wzxu3Kn7o4W1zhTskl5w-22">
          <mxGeometry relative="1" as="geometry">
            <mxPoint x="560" y="140" as="targetPoint" />
          </mxGeometry>
        </mxCell>
        <mxCell id="wzxu3Kn7o4W1zhTskl5w-5" value="查询permitAppl" style="rounded=1;whiteSpace=wrap;html=1;fontSize=12;glass=0;strokeWidth=1;shadow=0;" vertex="1" parent="WIyWlLk6GJQsqaUBKTNV-1">
          <mxGeometry x="370" y="120" width="120" height="40" as="geometry" />
        </mxCell>
        <mxCell id="wzxu3Kn7o4W1zhTskl5w-6" value="" style="edgeStyle=orthogonalEdgeStyle;rounded=0;orthogonalLoop=1;jettySize=auto;html=1;" edge="1" parent="WIyWlLk6GJQsqaUBKTNV-1" source="wzxu3Kn7o4W1zhTskl5w-7" target="wzxu3Kn7o4W1zhTskl5w-11">
          <mxGeometry relative="1" as="geometry" />
        </mxCell>
        <mxCell id="wzxu3Kn7o4W1zhTskl5w-7" value="查询itemExcelFile" style="rounded=1;whiteSpace=wrap;html=1;fontSize=12;glass=0;strokeWidth=1;shadow=0;" vertex="1" parent="WIyWlLk6GJQsqaUBKTNV-1">
          <mxGeometry x="800" y="120" width="120" height="40" as="geometry" />
        </mxCell>
        <mxCell id="wzxu3Kn7o4W1zhTskl5w-8" value="" style="edgeStyle=orthogonalEdgeStyle;rounded=0;orthogonalLoop=1;jettySize=auto;html=1;entryX=0.5;entryY=0;entryDx=0;entryDy=0;exitX=0.5;exitY=0;exitDx=0;exitDy=0;" edge="1" parent="WIyWlLk6GJQsqaUBKTNV-1" source="wzxu3Kn7o4W1zhTskl5w-11" target="wzxu3Kn7o4W1zhTskl5w-1">
          <mxGeometry relative="1" as="geometry">
            <mxPoint x="810" y="-10" as="targetPoint" />
            <Array as="points">
              <mxPoint x="1020" y="30" />
              <mxPoint x="80" y="30" />
            </Array>
          </mxGeometry>
        </mxCell>
        <mxCell id="wzxu3Kn7o4W1zhTskl5w-9" value="no" style="edgeLabel;html=1;align=center;verticalAlign=middle;resizable=0;points=[];" vertex="1" connectable="0" parent="wzxu3Kn7o4W1zhTskl5w-8">
          <mxGeometry x="-0.6146" relative="1" as="geometry">
            <mxPoint as="offset" />
          </mxGeometry>
        </mxCell>
        <mxCell id="wzxu3Kn7o4W1zhTskl5w-24" value="" style="edgeStyle=orthogonalEdgeStyle;rounded=0;orthogonalLoop=1;jettySize=auto;html=1;entryX=0.5;entryY=0;entryDx=0;entryDy=0;" edge="1" parent="WIyWlLk6GJQsqaUBKTNV-1" source="wzxu3Kn7o4W1zhTskl5w-11" target="wzxu3Kn7o4W1zhTskl5w-26">
          <mxGeometry relative="1" as="geometry">
            <mxPoint x="1020" y="260" as="targetPoint" />
          </mxGeometry>
        </mxCell>
        <mxCell id="wzxu3Kn7o4W1zhTskl5w-25" value="yes" style="edgeLabel;html=1;align=center;verticalAlign=middle;resizable=0;points=[];" vertex="1" connectable="0" parent="wzxu3Kn7o4W1zhTskl5w-24">
          <mxGeometry x="-0.6421" y="-1" relative="1" as="geometry">
            <mxPoint as="offset" />
          </mxGeometry>
        </mxCell>
        <mxCell id="wzxu3Kn7o4W1zhTskl5w-11" value="执行permit-edit-check流程" style="rhombus;whiteSpace=wrap;html=1;" vertex="1" parent="WIyWlLk6GJQsqaUBKTNV-1">
          <mxGeometry x="960" y="90" width="120" height="100" as="geometry" />
        </mxCell>
        <mxCell id="wzxu3Kn7o4W1zhTskl5w-17" style="edgeStyle=orthogonalEdgeStyle;rounded=0;orthogonalLoop=1;jettySize=auto;html=1;exitX=1;exitY=0.5;exitDx=0;exitDy=0;" edge="1" parent="WIyWlLk6GJQsqaUBKTNV-1" source="wzxu3Kn7o4W1zhTskl5w-22" target="wzxu3Kn7o4W1zhTskl5w-7">
          <mxGeometry relative="1" as="geometry">
            <mxPoint x="680" y="140" as="sourcePoint" />
          </mxGeometry>
        </mxCell>
        <mxCell id="wzxu3Kn7o4W1zhTskl5w-18" value="yes" style="edgeLabel;html=1;align=center;verticalAlign=middle;resizable=0;points=[];" vertex="1" connectable="0" parent="wzxu3Kn7o4W1zhTskl5w-17">
          <mxGeometry x="0.2857" relative="1" as="geometry">
            <mxPoint x="-12" as="offset" />
          </mxGeometry>
        </mxCell>
        <mxCell id="wzxu3Kn7o4W1zhTskl5w-20" style="edgeStyle=orthogonalEdgeStyle;rounded=0;orthogonalLoop=1;jettySize=auto;html=1;exitX=0.5;exitY=0;exitDx=0;exitDy=0;entryX=0.5;entryY=0;entryDx=0;entryDy=0;" edge="1" parent="WIyWlLk6GJQsqaUBKTNV-1" source="wzxu3Kn7o4W1zhTskl5w-22" target="wzxu3Kn7o4W1zhTskl5w-1">
          <mxGeometry relative="1" as="geometry">
            <mxPoint x="620" y="90" as="sourcePoint" />
            <Array as="points">
              <mxPoint x="650" y="60" />
              <mxPoint x="80" y="60" />
            </Array>
          </mxGeometry>
        </mxCell>
        <mxCell id="wzxu3Kn7o4W1zhTskl5w-21" value="no" style="edgeLabel;html=1;align=center;verticalAlign=middle;resizable=0;points=[];" vertex="1" connectable="0" parent="wzxu3Kn7o4W1zhTskl5w-20">
          <mxGeometry x="-0.414" y="3" relative="1" as="geometry">
            <mxPoint as="offset" />
          </mxGeometry>
        </mxCell>
        <mxCell id="wzxu3Kn7o4W1zhTskl5w-22" value="&lt;div&gt;permitStatus!=submitted&lt;/div&gt;&lt;div&gt;&amp;amp;&amp;amp;&lt;/div&gt;&lt;div&gt;permitStatus!=in-use&lt;/div&gt;" style="rhombus;whiteSpace=wrap;html=1;" vertex="1" parent="WIyWlLk6GJQsqaUBKTNV-1">
          <mxGeometry x="550" y="82.5" width="200" height="115" as="geometry" />
        </mxCell>
        <mxCell id="wzxu3Kn7o4W1zhTskl5w-28" value="" style="edgeStyle=orthogonalEdgeStyle;rounded=0;orthogonalLoop=1;jettySize=auto;html=1;entryX=1;entryY=0.5;entryDx=0;entryDy=0;" edge="1" parent="WIyWlLk6GJQsqaUBKTNV-1" source="wzxu3Kn7o4W1zhTskl5w-26" target="wzxu3Kn7o4W1zhTskl5w-31">
          <mxGeometry relative="1" as="geometry" />
        </mxCell>
        <mxCell id="wzxu3Kn7o4W1zhTskl5w-26" value="获取执行permit-edit-check流程返回的permitItemDto集合" style="rounded=1;whiteSpace=wrap;html=1;" vertex="1" parent="WIyWlLk6GJQsqaUBKTNV-1">
          <mxGeometry x="955" y="250" width="130" height="60" as="geometry" />
        </mxCell>
        <mxCell id="wzxu3Kn7o4W1zhTskl5w-30" value="" style="edgeStyle=orthogonalEdgeStyle;rounded=0;orthogonalLoop=1;jettySize=auto;html=1;" edge="1" parent="WIyWlLk6GJQsqaUBKTNV-1" source="wzxu3Kn7o4W1zhTskl5w-27" target="wzxu3Kn7o4W1zhTskl5w-29">
          <mxGeometry relative="1" as="geometry" />
        </mxCell>
        <mxCell id="wzxu3Kn7o4W1zhTskl5w-27" value="遍历permitItemDto集合" style="rounded=1;whiteSpace=wrap;html=1;" vertex="1" parent="WIyWlLk6GJQsqaUBKTNV-1">
          <mxGeometry x="600" y="250" width="120" height="60" as="geometry" />
        </mxCell>
        <mxCell id="wzxu3Kn7o4W1zhTskl5w-34" value="" style="edgeStyle=orthogonalEdgeStyle;rounded=0;orthogonalLoop=1;jettySize=auto;html=1;" edge="1" parent="WIyWlLk6GJQsqaUBKTNV-1" source="wzxu3Kn7o4W1zhTskl5w-29" target="wzxu3Kn7o4W1zhTskl5w-33">
          <mxGeometry relative="1" as="geometry" />
        </mxCell>
        <mxCell id="wzxu3Kn7o4W1zhTskl5w-29" value="&lt;div&gt;根据seq,itemCode,lotNo&lt;/div&gt;&lt;div&gt;从dbitem获取db数据&lt;/div&gt;" style="rounded=1;whiteSpace=wrap;html=1;" vertex="1" parent="WIyWlLk6GJQsqaUBKTNV-1">
          <mxGeometry x="410" y="250" width="120" height="60" as="geometry" />
        </mxCell>
        <mxCell id="wzxu3Kn7o4W1zhTskl5w-32" value="" style="edgeStyle=orthogonalEdgeStyle;rounded=0;orthogonalLoop=1;jettySize=auto;html=1;" edge="1" parent="WIyWlLk6GJQsqaUBKTNV-1" source="wzxu3Kn7o4W1zhTskl5w-31" target="wzxu3Kn7o4W1zhTskl5w-27">
          <mxGeometry relative="1" as="geometry" />
        </mxCell>
        <mxCell id="wzxu3Kn7o4W1zhTskl5w-31" value="permitAppl过滤出没有被删除的dbitem" style="rounded=1;whiteSpace=wrap;html=1;" vertex="1" parent="WIyWlLk6GJQsqaUBKTNV-1">
          <mxGeometry x="770" y="250" width="120" height="60" as="geometry" />
        </mxCell>
        <mxCell id="wzxu3Kn7o4W1zhTskl5w-36" style="edgeStyle=orthogonalEdgeStyle;rounded=0;orthogonalLoop=1;jettySize=auto;html=1;exitX=0;exitY=0.5;exitDx=0;exitDy=0;entryX=1;entryY=0.5;entryDx=0;entryDy=0;" edge="1" parent="WIyWlLk6GJQsqaUBKTNV-1" source="wzxu3Kn7o4W1zhTskl5w-33" target="wzxu3Kn7o4W1zhTskl5w-35">
          <mxGeometry relative="1" as="geometry" />
        </mxCell>
        <mxCell id="wzxu3Kn7o4W1zhTskl5w-33" value="检查dbitem与itemDto是否一致，不一致则覆盖dbItem" style="whiteSpace=wrap;html=1;rounded=1;" vertex="1" parent="WIyWlLk6GJQsqaUBKTNV-1">
          <mxGeometry x="240" y="250" width="120" height="60" as="geometry" />
        </mxCell>
        <mxCell id="wzxu3Kn7o4W1zhTskl5w-38" value="" style="edgeStyle=orthogonalEdgeStyle;rounded=0;orthogonalLoop=1;jettySize=auto;html=1;" edge="1" parent="WIyWlLk6GJQsqaUBKTNV-1" source="wzxu3Kn7o4W1zhTskl5w-35" target="wzxu3Kn7o4W1zhTskl5w-37">
          <mxGeometry relative="1" as="geometry" />
        </mxCell>
        <mxCell id="wzxu3Kn7o4W1zhTskl5w-39" value="no" style="edgeLabel;html=1;align=center;verticalAlign=middle;resizable=0;points=[];" vertex="1" connectable="0" parent="wzxu3Kn7o4W1zhTskl5w-38">
          <mxGeometry x="-0.2222" y="4" relative="1" as="geometry">
            <mxPoint as="offset" />
          </mxGeometry>
        </mxCell>
        <mxCell id="wzxu3Kn7o4W1zhTskl5w-35" value="&lt;div&gt;specId是&lt;/div&gt;&lt;div&gt;否为空&lt;/div&gt;" style="rhombus;whiteSpace=wrap;html=1;" vertex="1" parent="WIyWlLk6GJQsqaUBKTNV-1">
          <mxGeometry x="90" y="240" width="80" height="80" as="geometry" />
        </mxCell>
        <mxCell id="wzxu3Kn7o4W1zhTskl5w-41" value="" style="edgeStyle=orthogonalEdgeStyle;rounded=0;orthogonalLoop=1;jettySize=auto;html=1;" edge="1" parent="WIyWlLk6GJQsqaUBKTNV-1" source="wzxu3Kn7o4W1zhTskl5w-37" target="wzxu3Kn7o4W1zhTskl5w-40">
          <mxGeometry relative="1" as="geometry" />
        </mxCell>
        <mxCell id="wzxu3Kn7o4W1zhTskl5w-37" value="查询specroval记录" style="rounded=1;whiteSpace=wrap;html=1;" vertex="1" parent="WIyWlLk6GJQsqaUBKTNV-1">
          <mxGeometry x="70" y="410" width="120" height="60" as="geometry" />
        </mxCell>
        <mxCell id="wzxu3Kn7o4W1zhTskl5w-40" value="待完善" style="rounded=1;whiteSpace=wrap;html=1;" vertex="1" parent="WIyWlLk6GJQsqaUBKTNV-1">
          <mxGeometry x="270" y="410" width="120" height="60" as="geometry" />
        </mxCell>
      </root>
    </mxGraphModel>
  </diagram>
</mxfile>
